<?xml version="1.0" encoding="UTF-8"?>
<svg id="Capa_1" xmlns="http://www.w3.org/2000/svg" version="1.1" viewBox="0 0 3549.14 609">
  <!-- Generator: Adobe Illustrator 29.8.3, SVG Export Plug-In . SVG Version: 2.1.1 Build 3)  -->
  <defs>
    <style>
      .st0 {
        fill: #122023;
      }
    </style>
  </defs>
  <path class="st0" d="M31.49,470V135.99h62.98v334.01H31.49ZM273.25,476.68c-25.77,0-48.51-4.61-68.23-13.84-19.72-9.22-35.15-22.43-46.28-39.6-11.13-17.18-16.7-37.85-16.7-62.03v-13.36h62.03v13.36c0,20.04,6.2,35.15,18.61,45.33,12.41,9.86,29.26,14.79,50.58,14.79s37.69-4.29,48.19-12.88c10.82-8.59,16.22-19.56,16.22-32.92,0-9.22-2.7-16.7-8.11-22.43-5.09-5.73-12.72-10.34-22.9-13.84-9.86-3.82-21.95-7.32-36.26-10.5l-10.97-2.39c-22.9-5.09-42.63-11.45-59.17-19.09-16.22-7.95-28.79-18.29-37.7-31.01-8.59-12.72-12.88-29.26-12.88-49.62s4.77-37.69,14.31-52.01c9.86-14.63,23.54-25.77,41.04-33.4,17.81-7.95,38.65-11.93,62.51-11.93s45.01,4.13,63.46,12.41c18.77,7.95,33.4,20.04,43.9,36.26,10.82,15.9,16.22,35.94,16.22,60.12v14.31h-62.03v-14.31c0-12.72-2.55-22.9-7.64-30.54-4.77-7.95-11.77-13.68-20.99-17.18-9.23-3.82-20.2-5.73-32.92-5.73-19.09,0-33.24,3.66-42.47,10.97-8.91,7-13.36,16.7-13.36,29.11,0,8.27,2.07,15.27,6.2,20.99,4.45,5.73,10.98,10.5,19.56,14.32,8.59,3.82,19.56,7.16,32.92,10.02l10.98,2.39c23.86,5.09,44.53,11.61,62.03,19.56,17.81,7.95,31.65,18.45,41.51,31.49,9.86,13.04,14.79,29.74,14.79,50.1s-5.25,38.33-15.75,53.92c-10.18,15.27-24.81,27.36-43.9,36.26-18.77,8.59-41.04,12.88-66.8,12.88v.02ZM423.77,470l87.8-334.01h109.75l87.8,334.01h-64.89l-18.13-73.48h-119.29l-18.13,73.48h-64.91ZM521.58,338.31h89.71l-40.56-162.71h-8.59l-40.56,162.71ZM739.54,470v-55.35h43.9v-223.31h-43.9v-55.35h171.78c20.36,0,38.01,3.5,52.96,10.5,15.27,6.68,27.04,16.38,35.31,29.11,8.59,12.41,12.88,27.36,12.88,44.85v4.77c0,15.27-2.86,27.83-8.59,37.69-5.72,9.54-12.56,17.02-20.51,22.43-7.63,5.09-14.95,8.75-21.95,10.97v8.59c7,1.91,14.63,5.57,22.9,10.98,8.27,5.09,15.27,12.57,21,22.43,6.04,9.86,9.06,22.74,9.06,38.65v4.77c0,18.45-4.29,34.36-12.88,47.71-8.59,13.04-20.52,23.06-35.79,30.06-14.95,7-32.45,10.5-52.49,10.5h-173.68ZM846.42,412.74h59.17c13.68,0,24.65-3.34,32.92-10.02,8.59-6.68,12.88-16.22,12.88-28.63v-4.77c0-12.41-4.14-21.95-12.41-28.63-8.27-6.68-19.4-10.02-33.4-10.02h-59.17v82.07h.01ZM846.42,273.41h58.21c13.04,0,23.7-3.34,31.97-10.02,8.59-6.68,12.88-15.9,12.88-27.68v-4.77c0-12.09-4.14-21.31-12.41-27.67-8.27-6.68-19.09-10.02-32.45-10.02h-58.21v80.16h.01ZM1065.94,470V135.99h214.72v57.26h-151.73v79.68h138.37v57.26h-138.37v82.55h154.6v57.26h-217.59ZM1330.15,470V135.99h62.98v276.75h152.69v57.26h-215.67ZM1695.47,470V135.99h137.42c20.99,0,39.44,4.29,55.35,12.88,16.22,8.27,28.79,20.04,37.69,35.31,9.23,15.27,13.84,33.4,13.84,54.39v6.68c0,20.68-4.77,38.81-14.31,54.4-9.23,15.27-21.95,27.2-38.18,35.79-15.9,8.27-34.03,12.41-54.39,12.41h-74.44v122.15h-62.98,0ZM1758.45,290.59h68.24c14.95,0,27.03-4.14,36.26-12.41,9.22-8.27,13.84-19.56,13.84-33.88v-4.77c0-14.31-4.62-25.61-13.84-33.88-9.23-8.27-21.31-12.41-36.26-12.41h-68.24v97.34h0ZM2112.27,476.68c-27.36,0-50.9-4.93-70.62-14.79-19.4-10.18-34.35-24.49-44.85-42.94-10.18-18.77-15.27-40.88-15.27-66.33v-216.63h62.98v218.54c0,20.36,5.73,36.42,17.18,48.19,11.77,11.77,28.63,17.65,50.58,17.65s38.65-5.89,50.1-17.65c11.77-11.77,17.66-27.83,17.66-48.19v-218.54h62.98v216.63c0,25.45-5.25,47.56-15.75,66.33-10.18,18.45-25.13,32.76-44.85,42.94-19.4,9.86-42.78,14.79-70.14,14.79h0ZM2304.03,470V135.99h214.71v57.26h-151.73v79.68h138.37v57.26h-138.37v82.55h154.6v57.26h-217.58,0ZM2568.23,470V135.99h62.98v276.75h152.69v57.26h-215.67ZM2826.84,470V135.99h116.91l57.73,291.06h8.59l57.73-291.06h116.91v334.01h-61.08V182.28h-8.59l-57.26,287.72h-104.01l-57.26-287.72h-8.59v287.72h-61.08,0ZM3224.71,470l87.8-334.01h109.74l87.8,334.01h-64.9l-18.13-73.48h-119.29l-18.13,73.48h-64.89ZM3322.53,338.31h89.7l-40.56-162.71h-8.59l-40.55,162.71h0Z"/>
</svg>